<svg width="11" height="11" viewBox="0 0 11 11" fill="none" xmlns="http://www.w3.org/2000/svg">
<path d="M10.1611 9.3623C10.6255 9.3625 10.985 9.73521 11 10.1816C10.9999 10.6281 10.6253 11 10.1758 11H0.824219C0.37472 11 0.000131342 10.6281 0 10.1816C0 9.7351 0.374642 9.36232 0.824219 9.3623H10.1611ZM7.53809 4.68848C8.00266 4.68848 8.36197 5.04638 8.37695 5.50781C8.37684 5.95427 8.00226 6.32617 7.55273 6.32617H0.824219C0.374708 6.32615 0.000110814 5.95426 0 5.50781C0 5.06127 0.374642 4.68849 0.824219 4.68848H7.53809ZM10.1611 0C10.6255 0.000197527 10.985 0.372905 11 0.819336C10.9998 1.26569 10.6252 1.63768 10.1758 1.6377H0.824219C0.374782 1.63768 0.000233696 1.26569 0 0.819336C0 0.372797 0.374642 1.7582e-05 0.824219 0H10.1611Z" fill="#008AAA"/>
</svg>
