<?xml version="1.0" encoding="UTF-8"?>
<svg xmlns="http://www.w3.org/2000/svg" id="Layer_1" data-name="Layer 1" viewBox="0 0 2000 960">
  <defs>
    <style>
      .cls-1 {
        fill: #ff9e18;
      }

      .cls-1, .cls-2, .cls-3 {
        stroke-width: 0px;
      }

      .cls-2 {
        fill: #003da6;
      }

      .cls-3 {
        fill: #0071ce;
      }
    </style>
  </defs>
  <g>
    <path class="cls-1" d="M495.17,438.04c58.72,0,105.17-34.88,114.15-92.32h-51.78c-6.97,29.58-30.87,46.18-62.37,46.18-43.13,0-67.37-29.88-67.37-76.35s24.23-76.38,67.37-76.38c31.5,0,55.4,16.6,62.37,46.17h51.78c-8.98-57.44-55.44-92.31-114.15-92.31-67.7,0-118.44,48.82-118.44,122.52s50.74,122.49,118.44,122.49Z"></path>
    <path class="cls-1" d="M676.32,334.46c0-23.91,12.6-38.2,35.53-38.2,20.88,0,29.53,13.95,29.53,34.2v103.24h47.12v-108.54c0-41.51-22.26-69.41-64.05-69.41-22.55,0-39.14,7.98-48.13,19.92v-90.93h-47.12v248.96h47.12v-99.25Z"></path>
    <path class="cls-1" d="M808.55,433.71c15.95-2.16,31.72-2.69,47.12,0v-171.79h-47.12v171.79Z"></path>
    <path class="cls-1" d="M832.12,249.8c16.59,0,28.52-11.63,28.52-28.23s-11.93-28.54-28.52-28.54-28.56,11.94-28.56,28.54,11.97,28.23,28.56,28.23Z"></path>
    <path class="cls-1" d="M1516.34,437.63c55.71,0,91.19-41.5,91.19-90.93s-35.47-90.93-91.19-90.93-91.22,41.49-91.22,90.93,35.47,90.93,91.22,90.93ZM1516.34,297.26c24.85,0,44.09,18.27,44.09,49.44s-19.23,49.44-44.09,49.44-44.12-18.23-44.12-49.44,19.23-49.44,44.12-49.44Z"></path>
    <path class="cls-1" d="M956.38,395.85c-25.2,0-39.82-19.92-39.82-49.12s14.61-49.12,39.82-49.12c17.26,0,31.2,10.96,34.82,25.88h48.46l-1.08-6.49c-6.04-28.35-31.65-61.25-81.87-61.25s-87.27,39.2-87.27,90.97,36.83,90.97,87.27,90.97c54.1,0,79.64-38.19,82.95-67.73h-48.46c-3.62,14.95-17.56,25.88-34.82,25.88Z"></path>
    <path class="cls-1" d="M1128.04,255.76c-49.56,0-71.18,24.2-76.94,51.07-1.06,4.92-1.35,9.98-1.35,15.01v1.66h46.71c-.54-2.52-.63-4.69-.26-7.64,1.64-11.94,10.29-21.26,32.17-21.26,20.58,0,31.2,8.66,31.2,25.58v1.64l-46.45,6.97c-46.49,7.31-67.37,25.25-67.37,55.43s20.88,53.45,61.03,53.45c26.47,0,43.99-7.57,54.99-23.09l-.19,2.28c-.86,6.64-2.24,12.83-3.95,16.85h44.74c.33,0,1.97-7.98,1.97-19.28v-93.92c0-40.5-25.2-64.75-76.31-64.75ZM1159.58,362.32c0,22.9-14.65,38.83-42.17,38.83-18.9,0-26.21-6.3-26.21-18.24,0-9.63,6.3-16.94,26.51-20.59l41.86-6.98v6.98Z"></path>
    <g>
      <path class="cls-1" d="M1308.49,498.99s0,0-.02,0c0,0,0,0,.02,0Z"></path>
      <path class="cls-1" d="M1404.45,294.95c12.32-3.06,20.61-13.32,20.67-27.08.06-15.57-12.97-28.68-28.53-28.68-14.05,0-24.76,8.59-27.7,21.31-.73,3.16-4.34,4.71-7.26,3.31-9.87-4.77-21.05-7.99-33.5-9.2-52.75-5.22-91.09,28.52-99.28,74.07-.47,2.65-.86,5.4-1.14,8.15-2.64,27.02,5.5,52.69,22.46,71.38-5.55,2.14-10.55,4.44-14.88,6.97-5.5,3.22-10.77,7.42-14.11,12.94-2.91,4.89-4.25,11.7-4.25,17.39,0,9.61,7.38,52.11,91.56,53.48,23.04.45,47.69,14.29,47.76,49.65,0,1.62-.66,7.35-.72,7.41-2.02,13.83-8.13,27.19-20.02,35.16-8.44,5.69-18.55,7.97-28.6,6.97-24.98-2.42-42.42-22.64-39.39-53.91.08-.78,1.89-19.38,13.13-32.14.39-.44.72-.78,1.11-1.16-16.98-2.75-32.37-7.85-46.2-15.28-.55.72-1,1.51-1.44,2.31-7.47,11.88-12.25,25.77-13.88,40.77-5.33,49.52,25.71,94.97,81.62,100.97,129.62,13.91,135.42-182.41,10.72-182.41-45.99,0-44.35-9.93-44.35-11.83,0-4,6.65-8.44,41.99-8.44,50.14,0,79.43-19.36,93.7-54.63,3.53-8.59,5.83-17.92,6.77-27.64,1.85-18.78-1.54-36.91-9.48-52.5-1.48-2.91.07-6.55,3.24-7.33ZM1363.44,350.17c-3.03,31.22-24.12,47.69-49.11,45.22-24.93-2.41-42.45-22.64-39.4-53.92,3.08-31.33,24.18-47.75,49.17-45.27,24.9,2.47,42.42,22.64,39.34,53.96Z"></path>
    </g>
  </g>
  <g>
    <g>
      <path class="cls-2" d="M1768.71,488.69c-2.26,1.65-5.15,2.48-8.69,2.48s-6.39-.99-8.54-2.97c-2.16-1.98-3.4-4.64-3.72-7.99l5.71.04c.78,3.21,3.04,4.83,6.77,4.84,1.57,0,2.83-.29,3.77-.87.94-.58,1.43-1.46,1.45-2.65,0-.58-.15-1.13-.46-1.66s-.64-.95-1-1.29c-.36-.33-.95-.71-1.76-1.13-.81-.42-1.46-.72-1.94-.91-.48-.19-1.24-.49-2.27-.9-1.13-.44-2.03-.81-2.7-1.1-.66-.3-1.46-.72-2.39-1.27-.93-.55-1.65-1.11-2.15-1.68-.51-.57-.95-1.28-1.33-2.13-.38-.86-.56-1.79-.56-2.81,0-2.66,1.1-4.82,3.3-6.49,2.2-1.66,4.91-2.49,8.12-2.49,6.78,0,10.81,3.53,12.1,10.59h-6.09c-.14-1.39-.71-2.59-1.7-3.6-.99-1.01-2.37-1.52-4.14-1.52-1.36,0-2.51.3-3.45.89-.94.59-1.41,1.38-1.41,2.36,0,.52.14,1,.44,1.44.29.43.77.85,1.45,1.26.68.41,1.29.73,1.82.97.54.23,1.34.57,2.42,1,1.07.43,1.89.76,2.43,1,.54.23,1.3.59,2.28,1.08.98.49,1.73.97,2.26,1.45.53.48,1.09,1.06,1.69,1.74.59.68,1.02,1.45,1.28,2.3.26.86.39,1.79.39,2.81,0,3.16-1.13,5.56-3.39,7.21Z"></path>
      <path class="cls-2" d="M1812.65,458.12v32.62h-6.52v-23.4l-7.75,23.4h-6.77l-7.88-23.4v23.4h-6.56v-32.62h9.21l8.51,24.19,8.62-24.19h9.13Z"></path>
    </g>
    <g>
      <path class="cls-2" d="M303.11,432.71c31.52,0,55.41,16.6,62.38,46.14h51.76c-8.96-57.43-55.41-92.29-114.14-92.29-67.69,0-118.46,48.8-118.46,122.5s50.77,122.5,118.46,122.5c58.73,0,105.19-34.86,114.14-92.29h-51.76c-6.97,29.55-30.86,46.14-62.38,46.14-43.14,0-67.36-29.87-67.36-76.35s24.22-76.35,67.36-76.35Z"></path>
      <path class="cls-2" d="M524.09,455.29c-55.74,0-91.25,41.49-91.25,90.95s35.51,90.96,91.25,90.96,91.25-41.5,91.25-90.96-35.51-90.95-91.25-90.95ZM524.09,595.7c-24.89,0-44.14-18.26-44.14-49.46s19.25-49.46,44.14-49.46,44.13,18.26,44.13,49.46-19.25,49.46-44.13,49.46Z"></path>
      <path class="cls-2" d="M835.47,455.29c-25.44,0-43.42,7.64-59.03,24.56-10.18-15.27-27.48-24.56-51.57-24.56-25.45,0-43.09,10.29-51.22,25.23v-21.25h-44.45v173.96h48.17v-99.92c0-23.24,12.21-37.51,34.6-37.51s28.5,14.94,28.5,34.19v103.24h48.18v-98.93c0-24.23,11.87-38.51,34.6-38.51,21.37,0,28.49,14.94,28.49,34.19v103.24h48.17v-108.55c0-40.5-21.71-69.38-64.46-69.38Z"></path>
      <path class="cls-2" d="M1648.48,510.06c0-9.62,8.63-16.93,23.89-16.93,16.92,0,25.22,9.95,26.21,20.91h45.46c-1.32-25.56-19.25-58.76-71.34-58.76-42.8,0-69.68,25.9-69.68,57.43,0,69.04,96.56,41.5,96.56,70.71,0,9.62-9.29,15.93-27.21,15.93-19.58,0-28.21-10.96-28.87-22.57h-47.78c2.32,32.54,20.91,60.42,75.32,60.42,47.12,0,73.67-24.57,73.67-55.77,0-71.37-96.23-42.16-96.23-71.37Z"></path>
      <path class="cls-2" d="M1581.13,592.6v-67.93c0-41.5-22.23-69.38-64.04-69.38-25.88,0-43.8,10.29-51.76,25.23v-21.25h-43.47v173.96h47.12v-99.59c0-23.24,12.61-37.85,35.5-37.85,20.91,0,29.53,13.95,29.53,34.19v83.96c.01,11.3,1.66,19.28,1.99,19.28h50.12c-2.98-6.97-5-20.28-5-31.57v-9.05Z"></path>
      <path class="cls-2" d="M1199.45,592.6l.03-8.42v-59.5c0-40.5-21.72-69.38-64.46-69.38-25.45,0-43.42,7.64-59.03,24.56-10.18-15.27-27.48-24.56-51.57-24.56-25.44,0-43.09,10.29-51.23,25.23v-21.25c-15.27,2.38-30.11,2.36-44.44,0v173.96s48.17,0,48.17,0v-99.92c0-23.24,12.21-37.51,34.6-37.51s28.5,14.94,28.5,34.19v103.24h48.17v-98.93c0-24.23,11.87-38.51,34.61-38.51,21.37,0,28.49,14.94,28.49,34.19v83.96c.01,11.3,1.66,19.28,1.99,19.28h51.15c-2.98-6.97-5-20.28-5-31.57v-9.05Z"></path>
    </g>
  </g>
  <g>
    <path class="cls-3" d="M432.2,689.15v9.38h-23.01v57.31h-10.32v-57.31h-23.01v-9.38h56.33Z"></path>
    <path class="cls-3" d="M439.01,755.84v-66.69h10.13v27c3.22-5.97,8.71-8.62,15.34-8.62,9.94,0,17.8,5.78,17.8,17.52v30.79h-10.13v-27.47c0-9-4.36-12.03-10.13-12.03-6.25,0-12.88,3.98-12.88,14.49v25.01h-10.13Z"></path>
    <path class="cls-3" d="M495.15,755.84v-47.36h8.99l.57,8.24c2.37-5.49,7.2-9.19,14.49-9.19,1.42,0,3.22.19,4.45.66l-1.14,9.57c-1.33-.28-2.75-.57-5.11-.57-6.06,0-12.12,4.55-12.12,13.92v24.72h-10.13Z"></path>
    <path class="cls-3" d="M542.86,694.93c0,3.98-2.65,6.54-6.63,6.54s-6.63-2.56-6.63-6.54,2.65-6.54,6.63-6.54,6.63,2.56,6.63,6.54ZM541.25,708.48v47.36h-10.13v-47.36h10.13Z"></path>
    <path class="cls-3" d="M586.51,708.48h10.41l-19.13,47.36h-11.36l-19.03-47.36h11.17l13.73,37.89,14.2-37.89Z"></path>
    <path class="cls-3" d="M614.81,694.93c0,3.98-2.65,6.54-6.63,6.54s-6.63-2.56-6.63-6.54,2.65-6.54,6.63-6.54,6.63,2.56,6.63,6.54ZM613.2,708.48v47.36h-10.13v-47.36h10.13Z"></path>
    <path class="cls-3" d="M669.72,725.34v30.5h-10.13v-27.56c0-8.91-4.45-11.94-10.23-11.94-6.15,0-12.78,3.88-12.78,14.3v25.2h-10.13v-47.36h8.99l.38,7.96c3.22-6.06,8.99-8.9,15.81-8.9,10.13,0,18.08,5.78,18.08,17.81Z"></path>
    <path class="cls-3" d="M679,760.67l10.32-2.27c1.7,5.68,6.06,8.62,13.92,8.62,8.81,0,12.69-5.78,12.69-14.49v-4.36c-2.94,5.21-8.81,8.33-15.34,8.33-11.74,0-20.92-9.19-20.92-24.53s9.66-24.44,21.68-24.44c6.82,0,12.69,3.22,15.34,8.71l.38-7.77h9.09v41.4c0,16.57-7.86,25.38-23.67,25.38-12.12,0-21.02-5.11-23.48-14.59ZM716.02,731.69c0-9.95-5.11-15.53-12.97-15.53s-13.16,5.87-13.16,15.91,4.73,15.72,12.97,15.72,13.16-6.16,13.16-16.1Z"></path>
    <path class="cls-3" d="M811.26,748.45l-.47,7.2c-1.14.66-2.65.95-4.64.95-4.83,0-8.62-2.08-10.04-6.25-3.22,4.36-8.9,6.44-14.96,6.44-10.7,0-16.76-5.68-16.76-14.78s6.72-14.59,17.52-14.59h13.35v-2.56c0-6.16-4.17-9.19-10.13-9.19-6.44,0-9.66,2.46-11.65,7.58l-9.18-2.75c2.65-8.15,9.47-12.98,21.21-12.98,10.98,0,19.88,4.92,19.88,15.91v21.69c0,2.37,1.23,3.51,3.6,3.51.76,0,1.61,0,2.27-.19ZM795.25,738.79v-3.79h-11.17c-6.53,0-9.66,2.37-9.66,6.44s2.46,7.48,8.99,7.48c5.3,0,11.83-2.56,11.83-10.14Z"></path>
    <path class="cls-3" d="M859.63,720.89l-9.56,3.98c-1.8-5.78-5.21-8.81-11.08-8.81-8.33,0-13.35,5.68-13.35,16.1s5.02,16.1,13.35,16.1c6.53,0,9.75-3.31,11.46-9l9.66,3.22c-2.93,8.81-10.23,14.3-21.11,14.3-14.01,0-23.67-9.19-23.67-24.63s9.94-24.63,23.86-24.63c10.6,0,17.33,5.21,20.45,13.36Z"></path>
    <path class="cls-3" d="M868.53,755.84v-47.36h8.99l.57,8.24c2.37-5.49,7.2-9.19,14.49-9.19,1.42,0,3.22.19,4.45.66l-1.14,9.57c-1.33-.28-2.75-.57-5.11-.57-6.06,0-12.12,4.55-12.12,13.92v24.72h-10.13Z"></path>
    <path class="cls-3" d="M946.54,732.16c0,15.44-9.85,24.63-23.67,24.63s-23.67-9.19-23.67-24.63,9.75-24.63,23.67-24.63,23.67,9.19,23.67,24.63ZM909.52,732.16c0,10.42,5.02,16.2,13.35,16.2s13.35-5.78,13.35-16.2-5.02-16.2-13.35-16.2-13.35,5.78-13.35,16.2Z"></path>
    <path class="cls-3" d="M951.55,747.32l6.25-7.11c4.17,4.74,9.66,8.15,17.04,8.15,5.21,0,8.52-2.18,8.52-5.68,0-2.18-1.14-3.98-5.59-4.83l-9.94-1.99c-10.04-1.89-13.92-6.72-13.92-13.45,0-8.15,7.2-14.87,19.31-14.87,9.09,0,15.34,3.03,19.98,8.62l-6.34,6.72c-3.41-4.55-8.52-7.01-13.63-7.01-6.06,0-9.28,2.18-9.28,5.78,0,2.37,1.33,4.36,5.96,5.31l11.27,2.27c8.99,1.8,12.4,6.16,12.4,12.22,0,9.19-7.2,15.35-19.41,15.35-9.47,0-17.23-3.03-22.63-9.47Z"></path>
    <path class="cls-3" d="M997.28,747.32l6.25-7.11c4.17,4.74,9.66,8.15,17.04,8.15,5.21,0,8.52-2.18,8.52-5.68,0-2.18-1.14-3.98-5.59-4.83l-9.94-1.99c-10.04-1.89-13.92-6.72-13.92-13.45,0-8.15,7.2-14.87,19.31-14.87,9.09,0,15.34,3.03,19.98,8.62l-6.34,6.72c-3.41-4.55-8.52-7.01-13.63-7.01-6.06,0-9.28,2.18-9.28,5.78,0,2.37,1.33,4.36,5.96,5.31l11.27,2.27c8.99,1.8,12.4,6.16,12.4,12.22,0,9.19-7.2,15.35-19.41,15.35-9.47,0-17.23-3.03-22.63-9.47Z"></path>
    <path class="cls-3" d="M1072.82,760.67l10.32-2.27c1.7,5.68,6.06,8.62,13.92,8.62,8.81,0,12.69-5.78,12.69-14.49v-4.36c-2.94,5.21-8.81,8.33-15.34,8.33-11.74,0-20.92-9.19-20.92-24.53s9.66-24.44,21.68-24.44c6.82,0,12.69,3.22,15.34,8.71l.38-7.77h9.09v41.4c0,16.57-7.86,25.38-23.67,25.38-12.12,0-21.02-5.11-23.48-14.59ZM1109.84,731.69c0-9.95-5.11-15.53-12.97-15.53s-13.16,5.87-13.16,15.91,4.73,15.72,12.97,15.72,13.16-6.16,13.16-16.1Z"></path>
    <path class="cls-3" d="M1174.88,734.72h-34.75c.66,8.52,5.68,13.64,13.82,13.64,6.34,0,9.94-2.84,12.21-6.91l8.14,4.07c-3.31,7.01-10.89,11.27-20.45,11.27-14.11,0-23.77-9.19-23.77-24.54s9.66-24.72,23.39-24.72,21.78,9.38,21.78,21.6c0,2.27-.19,4.17-.38,5.59ZM1164.94,727.33c-.19-7.48-4.64-11.46-11.65-11.46s-11.65,3.98-12.88,11.46h24.52Z"></path>
    <path class="cls-3" d="M1228.46,725.34v30.5h-10.13v-27.56c0-8.91-4.45-11.94-10.23-11.94-6.15,0-12.78,3.88-12.78,14.3v25.2h-10.13v-47.36h8.99l.38,7.96c3.22-6.06,9-8.9,15.81-8.9,10.13,0,18.08,5.78,18.08,17.81Z"></path>
    <path class="cls-3" d="M1282.9,734.72h-34.75c.66,8.52,5.68,13.64,13.82,13.64,6.34,0,9.94-2.84,12.21-6.91l8.14,4.07c-3.31,7.01-10.89,11.27-20.45,11.27-14.11,0-23.77-9.19-23.77-24.54s9.66-24.72,23.39-24.72,21.78,9.38,21.78,21.6c0,2.27-.19,4.17-.38,5.59ZM1272.96,727.33c-.19-7.48-4.64-11.46-11.65-11.46s-11.65,3.98-12.88,11.46h24.52Z"></path>
    <path class="cls-3" d="M1293.21,755.84v-47.36h8.99l.57,8.24c2.37-5.49,7.2-9.19,14.49-9.19,1.42,0,3.22.19,4.45.66l-1.14,9.57c-1.33-.28-2.75-.57-5.11-.57-6.06,0-12.12,4.55-12.12,13.92v24.72h-10.13Z"></path>
    <path class="cls-3" d="M1371.6,748.45l-.47,7.2c-1.14.66-2.65.95-4.64.95-4.83,0-8.62-2.08-10.04-6.25-3.22,4.36-8.9,6.44-14.96,6.44-10.7,0-16.76-5.68-16.76-14.78s6.72-14.59,17.52-14.59h13.35v-2.56c0-6.16-4.17-9.19-10.13-9.19-6.44,0-9.66,2.46-11.65,7.58l-9.18-2.75c2.65-8.15,9.47-12.98,21.21-12.98,10.98,0,19.88,4.92,19.88,15.91v21.69c0,2.37,1.23,3.51,3.6,3.51.76,0,1.61,0,2.27-.19ZM1355.6,738.79v-3.79h-11.17c-6.53,0-9.66,2.37-9.66,6.44s2.46,7.48,8.99,7.48c5.3,0,11.83-2.56,11.83-10.14Z"></path>
    <path class="cls-3" d="M1409.28,753.09c-3.13,2.18-7.48,3.7-12.21,3.7-8.8,0-15.34-4.07-15.34-14.4v-25.48h-10.04v-8.43h10.04v-14.21h9.94v14.21h15.81v8.43h-15.81v23.97c0,4.45,2.18,6.91,6.72,6.91,3.5,0,5.96-.95,8.24-2.56l2.65,7.86Z"></path>
    <path class="cls-3" d="M1427.65,694.93c0,3.98-2.65,6.54-6.63,6.54s-6.63-2.56-6.63-6.54,2.65-6.54,6.63-6.54,6.63,2.56,6.63,6.54ZM1426.04,708.48v47.36h-10.13v-47.36h10.13Z"></path>
    <path class="cls-3" d="M1483.5,732.16c0,15.44-9.85,24.63-23.67,24.63s-23.67-9.19-23.67-24.63,9.75-24.63,23.67-24.63,23.67,9.19,23.67,24.63ZM1446.48,732.16c0,10.42,5.02,16.2,13.35,16.2s13.35-5.78,13.35-16.2-5.02-16.2-13.35-16.2-13.35,5.78-13.35,16.2Z"></path>
    <path class="cls-3" d="M1536.9,725.34v30.5h-10.13v-27.56c0-8.91-4.45-11.94-10.23-11.94-6.15,0-12.78,3.88-12.78,14.3v25.2h-10.13v-47.36h8.99l.38,7.96c3.22-6.06,8.99-8.9,15.81-8.9,10.13,0,18.08,5.78,18.08,17.81Z"></path>
    <path class="cls-3" d="M1544.56,747.32l6.25-7.11c4.17,4.74,9.66,8.15,17.04,8.15,5.21,0,8.52-2.18,8.52-5.68,0-2.18-1.14-3.98-5.59-4.83l-9.94-1.99c-10.04-1.89-13.92-6.72-13.92-13.45,0-8.15,7.2-14.87,19.32-14.87,9.09,0,15.34,3.03,19.98,8.62l-6.34,6.72c-3.41-4.55-8.52-7.01-13.63-7.01-6.06,0-9.28,2.18-9.28,5.78,0,2.37,1.33,4.36,5.96,5.31l11.27,2.27c8.99,1.8,12.4,6.16,12.4,12.22,0,9.19-7.2,15.35-19.41,15.35-9.47,0-17.23-3.03-22.63-9.47Z"></path>
    <path class="cls-3" d="M1607.61,749.68c0,4.07-3.03,7.11-7.2,7.11s-7.1-3.03-7.1-7.11,3.03-7.1,7.1-7.1,7.2,3.03,7.2,7.1Z"></path>
  </g>
</svg>
