<?xml version="1.0" encoding="UTF-8"?>
<svg width="1897px" height="367px" viewBox="0 0 1897 367" version="1.1" xmlns="http://www.w3.org/2000/svg" xmlns:xlink="http://www.w3.org/1999/xlink">
    <!-- Generator: Sketch 46.2 (44496) - http://www.bohemiancoding.com/sketch -->
    <title>PV logo_horizontal Copy 2</title>
    <desc>Created with Sketch.</desc>
    <defs></defs>
    <g id="Page-1" stroke="none" stroke-width="1" fill="none" fill-rule="evenodd">
        <g id="modified" transform="translate(0.000000, -459.000000)">
            <g id="PV-logo_horizontal-Copy-2" transform="translate(0.000000, 459.000000)">
                <path d="M286,185.000498 C286,244.093923 238.09315,292 178.999004,292 C119.904858,292 72,244.093923 72,185.000498 C72,125.906077 119.904858,78 178.999004,78 C238.09315,78 286,125.906077 286,185.000498" id="Fill-1" fill="#E7E6E2"></path>
                <g id="Group-5" fill-rule="nonzero">
                    <path d="M283.216067,184.381946 C283.216067,126.768021 236.502522,80.0617692 178.87995,80.0617692 C121.257771,80.0617692 74.5458222,126.767628 74.5458222,184.381946 C74.5458222,241.99542 121.257922,288.701128 178.87995,288.701128 C236.502372,288.701128 283.216067,241.995026 283.216067,184.381946 Z M288.188289,184.381946 C288.188289,244.740737 239.248433,293.672638 178.87995,293.672638 C118.511832,293.672638 69.5736,244.741102 69.5736,184.381946 C69.5736,124.021953 118.511675,75.0902593 178.87995,75.0902593 C239.24859,75.0902593 288.188289,124.022318 288.188289,184.381946 Z" id="Stroke-2" fill="#2F5162"></path>
                    <path d="M375.034117,190.099182 C375.034117,82.3880282 283.306855,-5.06072744 176.643274,0.863481183 L177.636071,18.7333678 C274.007058,13.3808208 357.134117,92.630519 357.134117,190.099182 L375.034117,190.099182 Z M238.927119,7.81304648 C135.144486,-21.4222869 26.7604285,42.3956451 3.68909681,146.174031 L21.1626254,150.057519 C41.9919443,56.3640501 140.133199,-1.42278756 234.072981,25.0398367 L238.927119,7.81304648 Z M3.65449949,146.336784 C-17.5511412,250.861807 58.1359525,355.976133 159.411094,365.601058 L161.104873,347.783928 C70.5302782,339.175955 2.08215451,244.115118 21.1972227,149.894766 L3.65449949,146.336784 Z M158.809769,365.562067 C268.57794,374.928669 353.372206,301.367401 356.963391,190.056598 L339.072697,189.479562 C335.815449,290.43981 259.976391,356.232198 160.331876,347.729454 L158.809769,365.562067 Z" id="Stroke-4" fill="#90BA3F"></path>
                </g>
                <path d="M541.095324,112.007543 C541.095324,104.539871 539.686809,97.362609 536.869784,90.4757543 C534.052759,83.5888996 530.117205,77.5732771 525.063129,72.4288793 C520.009054,67.2844815 513.919306,63.2602383 506.793885,60.3561422 C499.668464,57.4520461 491.963068,56 483.677698,56 C475.88945,56 468.59832,57.4935345 461.804317,60.4806034 C455.010313,63.4676724 449.08627,67.6578651 444.032194,73.0511853 C438.978119,78.4445056 435.042565,84.8335117 432.22554,92.2182112 C429.408514,99.6029107 428,107.443967 428,115.741379 L428,233.232759 L451.364748,233.232759 L451.364748,113.003233 C451.364748,105.70151 453.104676,99.1050659 456.584532,93.2139009 C460.064388,87.3227358 464.289928,83.2984926 469.261151,81.1411638 C474.232374,78.9838349 479.120745,77.9051724 483.926259,77.9051724 C488.40036,77.9051724 493.330155,78.9423504 498.715647,81.0167026 C504.10114,83.0910548 508.616665,86.8663793 512.26223,92.3426724 C515.907795,97.8189655 517.730576,104.373921 517.730576,112.007543 C517.730576,119.641165 515.949219,126.154632 512.386511,131.547953 C508.823802,136.941273 504.556835,140.633621 499.585612,142.625 C494.614388,144.616379 490.140288,145.612069 486.163309,145.612069 L460.561511,145.612069 L460.561511,167.517241 L492.87446,167.517241 C499.171342,167.517241 505.219666,166.10668 511.019424,163.28556 C516.819183,160.464441 521.997543,156.564655 526.554496,151.586207 C531.11145,146.607759 534.674162,140.675109 537.242626,133.788254 C539.81109,126.9014 541.095324,119.641165 541.095324,112.007543 Z M611.935252,111.260776 L608.206835,111.260776 C599.755755,111.260776 593.044604,112.505388 588.073381,114.994612 C583.102158,117.483836 578.628058,121.632544 574.651079,127.440733 L574.153957,127.440733 L574.153957,113.75 L553.27482,113.75 L553.27482,233.232759 L575.148201,233.232759 L575.148201,176.727371 C575.148201,161.792026 577.965227,150.632006 583.599281,143.247306 C589.233335,135.862606 597.767266,132.170259 609.201079,132.170259 L611.935252,132.170259 L611.935252,111.260776 Z M742.429856,173.491379 C742.429856,182.120691 740.814209,190.293642 737.582914,198.010237 C734.351619,205.726832 729.918946,212.406249 724.284892,218.048491 C718.650838,223.690734 712.022543,228.046876 704.4,231.116918 C696.777457,234.18696 688.8235,235.721983 680.538129,235.721983 C672.252759,235.721983 664.340227,234.18696 656.80054,231.116918 C649.260853,228.046876 642.632554,223.732219 636.915647,218.172953 C631.198741,212.613687 626.72464,205.975754 623.493345,198.259159 C620.26205,190.542565 618.646403,182.286637 618.646403,173.491379 C618.646403,166.853447 619.599219,160.464441 621.504856,154.324353 C623.410493,148.184266 626.103237,142.666488 629.583094,137.771013 C633.06295,132.875538 637.122781,128.560884 641.76259,124.827047 C646.402399,121.093211 652.03645,117.898708 658.664748,115.243534 C665.293047,112.588361 672.584173,111.260776 680.538129,111.260776 C684.515108,111.260776 689.072061,111.758621 694.208993,112.75431 C699.345925,113.75 704.565709,115.658406 709.868345,118.479526 C715.170982,121.300645 720.307914,125.200431 725.279137,130.178879 C730.25036,135.157328 734.351619,141.463361 737.582914,149.096983 C740.814209,156.730605 742.429856,164.862068 742.429856,173.491379 Z M680.538129,214.8125 C692.137651,214.8125 701.541547,210.954203 708.74982,203.237608 C715.958094,195.521013 719.56223,185.605605 719.56223,173.491379 C719.56223,169.176725 718.940827,164.654634 717.698022,159.925108 C716.455216,155.195582 714.301018,150.797951 711.235432,146.73222 C708.169845,142.666488 704.068586,139.223059 698.931655,136.40194 C693.794723,133.58082 687.580694,132.170259 680.289568,132.170259 C669.021464,132.170259 659.741845,136.028556 652.450719,143.745151 C645.159594,151.461746 641.514029,161.377154 641.514029,173.491379 C641.514029,185.77155 645.201018,195.728447 652.575,203.362069 C659.948982,210.995691 669.270025,214.8125 680.538129,214.8125 Z M790.650719,87.1153017 C790.650719,83.6303879 789.490766,80.5603461 787.170863,77.9051724 C784.85096,75.2499987 781.619666,73.9224138 777.476978,73.9224138 C773.334291,73.9224138 770.102996,75.2499987 767.783094,77.9051724 C765.463191,80.5603461 764.303237,83.6303879 764.303237,87.1153017 C764.303237,90.6002155 765.463191,93.6702574 767.783094,96.325431 C770.102996,98.9806047 773.334291,100.30819 777.476978,100.30819 C781.619666,100.30819 784.85096,98.9806047 787.170863,96.325431 C789.490766,93.6702574 790.650719,90.6002155 790.650719,87.1153017 Z M766.540288,113.75 L788.413669,113.75 L788.413669,243.438578 C788.413669,257.212283 784.395263,267.915947 776.358453,275.549569 C768.321644,283.183191 755.769306,287 738.701439,287 L733.481655,287 L733.481655,266.090517 L737.955755,266.090517 C749.22386,266.090517 756.804975,264.34806 760.699101,260.863147 C764.593227,257.378233 766.540288,250.325432 766.540288,239.704741 L766.540288,113.75 Z M931.833453,149.096983 C926.033694,137.148707 918.369723,127.855605 908.841547,121.217672 C899.313371,114.57974 887.755277,111.260776 874.167266,111.260776 C866.213309,111.260776 858.922184,112.588361 852.293885,115.243534 C845.665586,117.898708 840.031536,121.093211 835.391727,124.827047 C830.751917,128.560884 826.692086,132.875538 823.21223,137.771013 C819.732374,142.666488 817.03963,148.184266 815.133993,154.324353 C813.228356,160.464441 812.27554,166.853447 812.27554,173.491379 C812.27554,182.120691 813.891187,190.293642 817.122482,198.010237 C820.353777,205.726832 824.827878,212.406249 830.544784,218.048491 C836.261691,223.690734 842.889989,228.046876 850.429676,231.116918 C857.969363,234.18696 865.881896,235.721983 874.167266,235.721983 C890.738011,235.721983 904.864568,230.577585 916.546942,220.288793 C928.229317,210.000001 934.816187,196.641164 936.307554,180.212284 L914.185612,177.474138 C911.368586,190.584053 906.811629,200.084589 900.514748,205.975754 C894.217867,211.866919 885.43537,214.8125 874.167266,214.8125 C862.733453,214.8125 853.370982,210.995691 846.079856,203.362069 C838.78873,195.728447 835.143165,185.77155 835.143165,173.491379 C835.143165,161.211208 838.78873,151.254312 846.079856,143.62069 C853.370982,135.987068 862.733453,132.170259 874.167266,132.170259 C880.298443,132.170259 885.31109,133.041487 889.205216,134.783944 C893.099342,136.526401 897.117745,139.471981 901.260432,143.62069 L842.351439,176.478448 L851.29964,193.903017 L931.833453,149.096983 Z M1013.36151,113.75 C1004.2476,113.75 995.755097,115.699891 987.883993,119.599677 C980.012888,123.499462 973.467446,128.394934 968.247662,134.286099 C963.027878,140.177264 959.29946,146.56627 957.06241,153.453125 C954.82536,160.33998 953.706835,167.019397 953.706835,173.491379 C953.706835,182.120691 955.571043,190.584053 959.29946,198.881466 C963.027878,207.178878 968.371942,214.024244 975.331655,219.417565 C982.291367,224.810885 989.002518,228.461744 995.465108,230.370151 C1001.9277,232.278557 1007.89317,233.232759 1013.36151,233.232759 L1034.48921,233.232759 L1034.48921,212.323276 L1016.84137,212.323276 C1010.21307,212.323276 1004.2476,211.078664 998.944964,208.58944 C993.642327,206.100216 989.541068,203.196119 986.641187,199.877155 C983.741306,196.558191 981.33855,192.741378 979.432914,188.426724 C977.527277,184.11207 976.57446,179.133622 976.57446,173.491379 C976.57446,166.189656 978.231536,159.717674 981.545683,154.075431 C984.859831,148.433188 989.623921,143.786639 995.83795,140.135776 C1002.05198,136.484913 1009.13597,134.659483 1017.08993,134.659483 L1034.48921,134.659483 L1034.48921,113.75 L1013.36151,113.75 Z M1054.3741,83.8793103 L1054.3741,195.396552 C1054.3741,206.846983 1057.43969,216.015624 1063.57086,222.902478 C1069.70204,229.789333 1078.15312,233.232759 1088.9241,233.232759 L1119,233.232759 L1119,212.323276 L1091.90683,212.323276 C1081.46727,212.323276 1076.24748,207.59375 1076.24748,198.134698 L1076.24748,134.659483 L1119,134.659483 L1119,113.75 L1076.24748,113.75 L1076.24748,83.8793103 L1054.3741,83.8793103 Z" id="Project" fill="#2F5162"></path>
                <path d="M1171,148.67734 C1171,144.697044 1169.56639,141.255748 1166.69915,138.353448 C1163.83192,135.451148 1160.4322,134 1156.5,134 C1152.5678,134 1149.16808,135.451148 1146.30085,138.353448 C1143.43361,141.255748 1142,144.697044 1142,148.67734 C1142,152.657635 1143.43361,156.098931 1146.30085,159.001232 C1149.16808,161.903532 1152.5678,163.35468 1156.5,163.35468 C1160.4322,163.35468 1163.83192,161.903532 1166.69915,159.001232 C1169.56639,156.098931 1171,152.657635 1171,148.67734 Z M1171,220.32266 C1171,216.342365 1169.56639,212.901069 1166.69915,209.998768 C1163.83192,207.096468 1160.4322,205.64532 1156.5,205.64532 C1152.5678,205.64532 1149.16808,207.096468 1146.30085,209.998768 C1143.43361,212.901069 1142,216.342365 1142,220.32266 C1142,224.302956 1143.43361,227.744252 1146.30085,230.646552 C1149.16808,233.548852 1152.5678,235 1156.5,235 C1160.4322,235 1163.83192,233.548852 1166.69915,230.646552 C1169.56639,227.744252 1171,224.302956 1171,220.32266 Z" id=":" fill="#90BA3F"></path>
                <path d="M1188,58.9834254 L1239.95687,212.629834 C1242.94004,221.58011 1246.08894,227.712708 1249.40358,231.027624 C1252.71821,234.34254 1256.8615,236 1261.83345,236 C1266.8054,236 1270.94869,234.383978 1274.26332,231.151934 C1277.57796,227.91989 1280.47826,222.491714 1282.96424,214.867403 L1333.18093,58.9834254 L1309.06697,58.9834254 L1261.83345,202.685083 L1261.33626,202.685083 L1212.36255,58.9834254 L1188,58.9834254 Z M1345.6108,58.9834254 L1345.6108,233.016575 L1368.97896,233.016575 L1368.97896,58.9834254 L1345.6108,58.9834254 Z M1439.33205,58.9834254 C1425.24486,58.9834254 1413.85081,62.9198882 1405.14989,70.7928177 C1396.44898,78.6657471 1392.09853,89.3149171 1392.09853,102.740331 C1392.09853,113.845305 1396.24182,123.541438 1404.5284,131.828729 C1408.50596,135.80663 1413.89224,139.743093 1420.68724,143.638122 C1427.48223,147.53315 1436.59748,152.132598 1448.03296,157.436464 C1455.98808,161.082874 1462.41018,164.729281 1467.29926,168.375691 C1472.18835,172.022101 1475.46155,175.585635 1477.11886,179.066298 C1478.77618,182.546961 1479.60484,185.696134 1479.60484,188.513812 C1479.60484,203.596686 1470.241,211.138122 1451.51332,211.138122 L1390.85554,211.138122 L1390.85554,233.016575 L1455.49088,233.016575 C1469.90954,233.016575 1481.42789,228.831493 1490.04593,220.461326 C1498.66398,212.091159 1502.973,200.779004 1502.973,186.524862 C1502.973,175.419888 1498.91258,165.558012 1490.79173,156.939227 C1486.9799,152.795579 1481.46932,148.56906 1474.25999,144.259669 C1467.05067,139.950278 1457.97686,135.309392 1447.03857,130.337017 C1436.10028,125.364641 1428.10373,120.640884 1423.04891,116.165746 C1417.9941,111.690608 1415.46669,106.883979 1415.46669,101.745856 C1415.46669,94.9502775 1417.37261,89.770717 1421.18443,86.2071823 C1424.99626,82.6436477 1429.88534,80.8618785 1435.85168,80.8618785 L1495.26648,80.8618785 L1495.26648,58.9834254 L1439.33205,58.9834254 Z M1525.09818,58.9834254 L1525.09818,233.016575 L1548.46634,233.016575 L1548.46634,58.9834254 L1525.09818,58.9834254 Z M1752.06767,146 C1752.06767,158.099449 1749.66456,169.701656 1744.85835,180.80663 C1740.05213,191.911603 1733.38143,201.566298 1724.84625,209.770718 C1716.31107,217.975138 1706.49147,224.397789 1695.38745,229.038674 C1684.28343,233.679559 1672.84794,236 1661.081,236 C1649.31405,236 1637.87857,233.720993 1626.77454,229.162983 C1615.67052,224.604974 1605.85092,218.182319 1597.31574,209.895028 C1588.78056,201.607736 1582.10986,191.953037 1577.30365,180.930939 C1572.49743,169.908841 1570.09432,158.265192 1570.09432,146 C1570.09432,133.734808 1572.49743,122.091159 1577.30365,111.069061 C1582.10986,100.046963 1588.78056,90.3922639 1597.31574,82.1049724 C1605.85092,73.8176808 1615.67052,67.3950264 1626.77454,62.8370166 C1637.87857,58.2790068 1649.31405,56 1661.081,56 C1672.84794,56 1684.28343,58.3204407 1695.38745,62.961326 C1706.49147,67.6022112 1716.31107,74.0248619 1724.84625,82.2292818 C1733.38143,90.4337017 1740.05213,100.088397 1744.85835,111.19337 C1749.66456,122.298344 1752.06767,133.900551 1752.06767,146 Z M1661.081,214.121547 C1670.0305,214.121547 1678.60712,212.381215 1686.81083,208.900552 C1695.01455,205.41989 1702.18244,200.571823 1708.31452,194.356354 C1714.44659,188.140884 1719.21137,180.848068 1722.60887,172.477901 C1726.00637,164.107734 1727.70512,155.281767 1727.70512,146 C1727.70512,136.718233 1726.00637,127.892266 1722.60887,119.522099 C1719.21137,111.151932 1714.44659,103.859116 1708.31452,97.6436464 C1702.18244,91.4281768 1695.01455,86.5801105 1686.81083,83.0994475 C1678.60712,79.6187845 1669.94764,77.878453 1660.8324,77.878453 C1651.88289,77.878453 1643.34771,79.6187845 1635.22686,83.0994475 C1627.10601,86.5801105 1619.97955,91.4696145 1613.84748,97.7679558 C1607.7154,104.066297 1602.95062,111.400551 1599.55312,119.770718 C1596.15562,128.140885 1594.45687,136.883977 1594.45687,146 C1594.45687,155.281767 1596.15562,164.107734 1599.55312,172.477901 C1602.95062,180.848068 1607.7154,188.140884 1613.84748,194.356354 C1619.97955,200.571823 1627.14744,205.41989 1635.35116,208.900552 C1643.55487,212.381215 1652.13149,214.121547 1661.081,214.121547 Z M1816.45442,81.6077348 C1811.6482,71.1657459 1807.33918,64.4530387 1803.52735,61.4696133 C1800.21272,58.8176783 1795.90369,57.4917127 1790.60028,57.4917127 C1784.30248,57.4917127 1779.33053,59.2734819 1775.68443,62.8370166 C1772.03833,66.4005512 1770.21529,71.4972363 1770.21529,78.1270718 L1770.21529,233.016575 L1793.58345,233.016575 L1793.58345,90.3093923 L1794.08065,90.3093923 L1855.73282,217.104972 C1859.37892,224.729283 1862.85928,229.535912 1866.17391,231.524862 C1869.32282,233.513812 1873.63184,234.508287 1879.10098,234.508287 C1881.91842,234.508287 1884.77729,233.969612 1887.67759,232.892265 C1890.5779,231.814918 1892.85671,229.90884 1894.51403,227.174033 C1896.17134,224.439227 1897,221.414363 1897,218.099448 L1897,58.9834254 L1873.63184,58.9834254 L1873.63184,198.707182 L1873.13464,198.707182 L1816.45442,81.6077348 Z" id="VISION" fill="#2F5162"></path>
            </g>
        </g>
    </g>
</svg>