<svg width="34" height="34" viewBox="0 0 34 34" fill="none" xmlns="http://www.w3.org/2000/svg">
<path d="M17 1C25.8366 1 33 8.16345 33 17C33 25.8365 25.8366 33 17 33C8.16345 33 1 25.8366 1 17C1 8.16345 8.16345 1 17 1Z" stroke="#FFD855" stroke-width="2"/>
<path d="M12.7183 17.6064C12.4064 17.2946 12.4064 16.7884 12.7183 16.4766L16.731 12.4648L16.9077 12.2881L21.0962 16.4766C21.4081 16.7884 21.4081 17.2946 21.0962 17.6064C20.7845 17.918 20.2792 17.9178 19.9673 17.6064L17.7075 15.3506V20.8916C17.7074 21.3332 17.3493 21.6912 16.9077 21.6914C16.466 21.6914 16.107 21.3333 16.1069 20.8916V15.3506L13.8472 17.6064C13.5352 17.9178 13.0299 17.9181 12.7183 17.6064Z" fill="url(#paint0_linear_5344_2149)" stroke="#33A3BD" stroke-width="0.5"/>
<defs>
<linearGradient id="paint0_linear_5344_2149" x1="12.5073" y1="17.0414" x2="21.3073" y2="17.0414" gradientUnits="userSpaceOnUse">
<stop stop-color="#008CAC"/>
<stop offset="1" stop-color="#33A3BD"/>
</linearGradient>
</defs>
</svg>
