<svg width="34" height="34" viewBox="0 0 34 34" fill="none" xmlns="http://www.w3.org/2000/svg">
<path d="M17 1C25.8366 1 33 8.16345 33 17C33 25.8365 25.8366 33 17 33C8.16345 33 1 25.8366 1 17C1 8.16345 8.16345 1 17 1Z" stroke="#FFD855" stroke-width="2"/>
<path d="M12.811 16.7671C12.4992 17.079 12.4992 17.5851 12.811 17.897L16.8237 21.9087L17.0005 22.0854L21.189 17.897C21.5008 17.5851 21.5008 17.079 21.189 16.7671C20.8773 16.4556 20.372 16.4557 20.0601 16.7671L17.8003 19.0229V13.4819C17.8002 13.0403 17.4421 12.6823 17.0005 12.6821C16.5587 12.6821 16.1998 13.0402 16.1997 13.4819V19.0229L13.9399 16.7671C13.628 16.4557 13.1227 16.4555 12.811 16.7671Z" fill="url(#paint0_linear_5344_2155)" stroke="#33A3BD" stroke-width="0.5"/>
<defs>
<linearGradient id="paint0_linear_5344_2155" x1="12.6001" y1="17.3321" x2="21.4001" y2="17.3321" gradientUnits="userSpaceOnUse">
<stop stop-color="#008CAC"/>
<stop offset="1" stop-color="#33A3BD"/>
</linearGradient>
</defs>
</svg>
