<svg width="45" height="44" viewBox="0 0 45 44" fill="none" xmlns="http://www.w3.org/2000/svg">
<path d="M15.8223 23.9128C15.0955 25.8246 14.732 27.8816 14.7805 29.987C14.9016 34.1252 17.906 34.2704 18.5117 34.1978L19.1174 36.5936C14.3444 37.1986 12.1396 34.1252 11.9942 30.1806C11.8973 28.0752 12.3334 25.6068 13.2541 23.1626C13.2541 23.1626 14.6593 23.1868 15.8465 23.9128H15.8223Z" fill="url(#paint0_linear_5344_1141)"/>
<path d="M26.5306 10.119C29.4865 10.2158 31.4005 6.97296 31.4975 4.57716C31.5944 2.01196 29.6076 0.100155 26.7729 0.00335488C24.1562 -0.0934452 22.0968 1.91516 21.9999 4.64976C21.9514 5.81136 22.3149 7.04556 22.9933 8.03776C23.8413 9.32036 25.1496 10.0706 26.5306 10.119ZM26.7002 2.47176C27.9843 2.52016 29.0988 3.19776 29.0504 4.50456C29.0019 5.78716 27.9359 7.72316 26.6518 7.67476C25.3677 7.62636 24.4712 6.05336 24.4954 4.74656C24.5439 3.46396 25.4161 2.44756 26.7002 2.47176Z" fill="url(#paint1_linear_5344_1141)"/>
<path d="M18.0268 19.8956C20.5708 16.4834 24.3747 14.1602 28.6389 13.9666C32.2974 13.7972 36.4162 14.8378 39.0087 18.7582C41.6981 22.848 41.3589 27.6396 40.947 32.286C40.5109 37.2954 38.403 41.724 38.3788 41.7482C38.0638 42.6194 38.5241 43.6116 39.4206 43.902C39.5902 43.9504 39.7598 43.9988 39.9294 43.9988C40.6562 44.023 41.3346 43.5874 41.6011 42.8614C41.8434 42.1354 47.949 25.0502 41.165 16.4108C38.403 12.8776 34.0176 11.0384 28.0574 11.353C23.5752 11.595 19.1656 13.9182 15.9432 18.2016C15.7494 18.4436 15.5798 18.6856 15.4102 18.9518C15.4102 18.9518 16.5489 19.2664 18.0268 19.8714V19.8956Z" fill="url(#paint2_linear_5344_1141)"/>
<path d="M8.21438 19.1458C10.2738 19.2184 11.7275 17.1856 11.8002 15.2496C11.8729 13.241 10.3223 11.4986 8.40821 11.426C6.46993 11.3534 4.62856 13.12 4.55588 15.1528C4.48319 17.1372 6.25187 19.0974 8.19015 19.17L8.21438 19.1458ZM8.33552 13.5798C9.11083 13.604 9.66809 14.4026 9.64386 15.177C9.61963 15.9514 9.06237 17.0404 8.28706 17.0162C7.51175 16.992 6.68798 15.9998 6.73644 15.2254C6.76067 14.451 7.56021 13.5556 8.33552 13.5798Z" fill="url(#paint3_linear_5344_1141)"/>
<path d="M15.531 22.5577C19.6983 24.1549 21.8789 26.6959 21.4912 30.7615C21.2247 33.4961 19.4318 34.0769 18.5111 34.1737C13.2535 34.6093 11.9694 30.1565 11.9694 30.1565C12.1148 34.1011 14.3196 37.1745 19.0926 36.5695C22.63 35.9645 24.229 33.5445 24.3017 30.4953C24.3744 26.9621 23.1145 22.8481 15.846 20.2103C8.62591 18.0565 3.87714 23.6709 3.87714 23.6709C-0.120556 27.8817 -1.18661 33.6897 1.43006 40.7803C1.62389 41.3127 2.10846 41.6515 2.64149 41.6515C2.81109 41.6515 2.98069 41.6031 3.15028 41.5789C3.87714 41.4337 4.33747 40.6351 4.14365 39.9091C2.18114 33.0847 2.06 29.5273 5.28239 25.7037C5.28239 25.7037 10.225 20.4523 15.5552 22.5335L15.531 22.5577Z" fill="url(#paint4_linear_5344_1141)"/>
<defs>
<linearGradient id="paint0_linear_5344_1141" x1="11.9445" y1="29.749" x2="19.3296" y2="30.0072" gradientUnits="userSpaceOnUse">
<stop stop-color="#EA7601"/>
<stop offset="1" stop-color="#EE9134"/>
</linearGradient>
<linearGradient id="paint1_linear_5344_1141" x1="22.0019" y1="4.86825" x2="31.4694" y2="5.19925" gradientUnits="userSpaceOnUse">
<stop stop-color="#EA7601"/>
<stop offset="1" stop-color="#EE9134"/>
</linearGradient>
<linearGradient id="paint2_linear_5344_1141" x1="15.1199" y1="26.9783" x2="44.3458" y2="28.0001" gradientUnits="userSpaceOnUse">
<stop stop-color="#EA7601"/>
<stop offset="1" stop-color="#EE9134"/>
</linearGradient>
<linearGradient id="paint3_linear_5344_1141" x1="4.57707" y1="15.1089" x2="11.7927" y2="15.3612" gradientUnits="userSpaceOnUse">
<stop stop-color="#FFD800"/>
<stop offset="1" stop-color="#FFD855"/>
</linearGradient>
<linearGradient id="paint4_linear_5344_1141" x1="0.0904234" y1="30.4012" x2="24.2798" y2="31.2469" gradientUnits="userSpaceOnUse">
<stop stop-color="#FFD800"/>
<stop offset="1" stop-color="#FFD855"/>
</linearGradient>
</defs>
</svg>
