<?xml version="1.0" encoding="UTF-8"?>
<svg id="Layer_1" xmlns="http://www.w3.org/2000/svg" xmlns:xlink="http://www.w3.org/1999/xlink" version="1.1" viewBox="7 -3 240 184">
  <!-- Generator: Adobe Illustrator 30.5.1, SVG Export Plug-In . SVG Version: 2.1.4 Build 3)  -->
  <defs>
    <style>
      .st0 {
        fill: #085c71;
      }

      .st1 {
        isolation: isolate;
      }

      .st2 {
        display: none;
      }
    </style>
  </defs>
  <g id="Layer_11" class="st2">
    <image class="st1" width="257" height="184" xlink:href="KK_Signature.png"/>
  </g>
  <g>
    <path class="st0" d="M97.4,129.8h0c0,0-.2-.1-.2-.1-22.3-2-35.5-14.9-39-38.3-2.6-16.9-7.6-24.9-11.4-28.6,1.6-3.4,3.2-6.9,4.8-10.3l1.1-2.4c20.6-13.6,45.3-35.2,52.4-41.5l.2-.2c.2-.2.3-.5.3-.7s-.1-.5-.3-.7c-.2-.2-.4-.3-.7-.3s-.5.1-.7.3c-.2.2-27.1,24.1-49.7,39.6,5.4-12.1,10.1-23.6,14-34h0s0-.1,0-.1c0-.3,0-.9-.6-1.1h0s0,0,0,0c-.3,0-.9,0-1.1.6-4.4,11.8-9.7,24.6-15.3,36.8-6.5,4.3-12.2,7.5-16.5,9.3-.3,0-.6,0-.9,0-4,0-6,1.4-6.5,1.8-.1,0-.3.1-.3.3-.2.3-.1.6,0,.8,0,.4.4.7.9.7,2.2,0,4.7-.5,7.2-1.5,1.4,0,3.1.4,5.4,1.3h0s0,0,0,0h.1c.3,0,1.8.5,3.7,2-13.2,27.6-26.2,51.5-31.3,60.6-.2.4-.4.6-.4.7-.2.4,0,.9.3,1.3h0c0,0,0,.1,0,.1h.4c.3,0,.7,0,.9-.6,0,0,.1-.2.3-.6,5-8.9,18-32.7,31-60.1,3.5,3.7,8.1,11.3,10.4,26.9,3.7,24.4,17.5,37.9,40.8,40h0c.6,0,1-.4,1-1s-.2-.7-.5-.9ZM49.5,52c-1.5,3.3-3,6.5-4.4,9.4-2-1.6-3.7-2.1-4.3-2.1-1-.3-1.8-.6-2.6-.8,3.2-1.5,6.9-3.6,11.3-6.5Z"/>
    <path class="st0" d="M129.7,119.5l-.4-.4v.4c-3.3-2.1-4.6-3.2-6-4.5l-.2-.2-.3-.3c-1.6-1.4-3.7-3.3-8.2-6.4-3.8-2.8-8-4.2-12.3-4.2-8.7,0-16.2,5.5-20.7,8.8-1.3.9-2.6,1.4-3.5,1.4s-.7,0-1-.2c-.9-.5-1.2-1.5-1.1-2.9.2-2,2.4-9.4,6.2-14.6.2-.2.2-.4.2-.7,0-.2-.2-.4-.3-.6-.2-.2-.4-.2-.6-.2s-.3,0-.4,0c0,0,0,0,0,0h-.1s-.1,0-.1,0h0c0,.1,0,.2,0,.2-4.1,5.6-6.4,13.5-6.6,15.5-.2,2.1.6,4,2.1,4.8.6.3,1.3.5,2.1.5,1.4,0,2.9-.6,4.5-1.8l.2-.2c4.6-3.3,11.5-8.2,19.4-8.2s7.7,1.3,11.1,3.8c4.7,3.4,6.7,5.1,8.4,6.7,1.9,1.7,3.4,2.9,7.4,5.4h0s0,0,0,0h.4c.2,0,.6,0,.8-.5.2-.4,0-.9-.3-1.3l-.4-.4Z"/>
    <path class="st0" d="M240.5,110h0s0-.1,0-.1h0c0,0-.4-.5-.4-.5l-.4-.4v.5h0c-1.4.4-2.5.7-3.5,1,3.3-10.6,4.7-19.6,3.5-23.1-.9-2.6-2.8-4.3-5.5-4.8-.7-.1-1.4-.2-2.2-.2-8.6,0-22.3,8.9-34.2,22.2-6.9,7.7-14.5,11.6-22.8,11.6s-13.4-3.8-13.5-3.8h-.2c-3.9-2.2-13.9-6.9-23-6.9,0,0-.1,0-.2,0,9.4-8.6,16.1-27.3,19-35.4,7.1-19.7,17.6-32.5,21.8-37.1.2-.2.2-.2.3-.3.2-.2.3-.4.3-.7s-.1-.5-.3-.7c-.2-.2-.4-.3-.7-.3s-.5.1-.7.3c-.1.1-13.8,14-22.4,38-2.1,6-8.5,24-17,33.1,2.3-14.3,6-39,11.1-76.7.2-1.3.3-2.2.3-2.3,0-.5-.2-.9-.7-1.1,0,0-.2,0-.3,0h0c-.4,0-.8.4-1,.7h0c0,0,0,.1,0,.1h0c0,1-6,45.7-11.8,81.5l-1.2,1c-.4,0-.8,0-1.1.2-6.3,1.5-6.6,2.1-6.6,3s.4,1.1,1.3,1.1c2.4,0,4.7-.8,7.2-2.4h0l-.2,1.1c-1.3,7.7-2.5,15-3.7,21.1,0,.6.2,1,.7,1.2h0s0,0,0,0c.5,0,.8-.4,1-.7h0s0,0,0,0c1.2-6,2.5-13.7,4-22.7.3,0,.6,0,.9,0,10,0,21.4,6.2,22,6.5h0s.1.2.1.2h0s0,0,0,0c4.4,2.4,9.5,3.8,14.4,3.8,8.8,0,17-4.1,24.2-12.1,11.3-12.7,24.7-21.5,32.6-21.5s1.2,0,1.8.2c2,.4,3.3,1.5,3.9,3.5,1.1,3.3-.5,12.9-4,23.4-22.8,9.1-40.1,36.3-43.5,49-.9,3.6-.7,6.1.5,7.3.6.5,1.3.7,2.1.7s1.2-.1,2-.4c8.6-3,16.8-10.5,24.6-22.2,6.2-9.3,11.7-20.9,15.7-32.9,1.4-.5,3.1-1.1,4.7-1.5.2,0,.3,0,.5-.2h.4v-.5h0c0-.2,0-.4,0-.5ZM227.1,127.8c-5.6,12.1-17.2,32.9-33,38.4-.5.2-1,.3-1.4.3s-.6,0-.8-.2c-.3-.3-.9-1.4,0-5.4,1.7-6.7,7.2-16.5,14-25,5.7-7.2,15-16.7,26.7-21.9-1.5,4.3-3.3,8.7-5.3,13.1l-.2.4-.2.4h.1Z"/>
  </g>
</svg>