<?xml version="1.0" encoding="UTF-8"?>
<svg id="Layer_1" data-name="Layer 1" xmlns="http://www.w3.org/2000/svg" viewBox="0 0 450 285">
  <defs>
    <style>
      .cls-1 {
        fill: #fff;
        stroke-width: 0px;
      }
    </style>
  </defs>
  <g>
    <path class="cls-1" d="M43.09,265.71c0-.39.19-.58.56-.58h7.47c.39,0,.58.19.58.58v.28c0,.39-.19.58-.58.58h-6.42v6.14h5.45c.37,0,.56.19.56.56v.3c0,.39-.19.58-.56.58h-5.45v6.75c0,.39-.19.58-.56.58h-.49c-.37,0-.56-.19-.56-.58v-15.2Z"/>
    <path class="cls-1" d="M59.85,273.21c0-1.18.21-2.28.63-3.29.42-1.02,1-1.9,1.75-2.65s1.63-1.34,2.64-1.77,2.12-.64,3.32-.64,2.28.21,3.29.64,1.9,1.01,2.64,1.76c.75.74,1.33,1.63,1.76,2.65.43,1.02.64,2.13.64,3.3s-.21,2.34-.64,3.39c-.43,1.05-1.01,1.96-1.76,2.72-.74.77-1.63,1.37-2.64,1.8s-2.11.65-3.29.65-2.28-.22-3.29-.65c-1.02-.43-1.9-1.04-2.64-1.8s-1.33-1.68-1.76-2.72c-.43-1.05-.64-2.18-.64-3.39ZM61.52,273.21c0,1.01.17,1.94.51,2.8.34.86.81,1.61,1.4,2.23.59.63,1.29,1.12,2.11,1.48.81.36,1.69.53,2.64.53s1.83-.18,2.64-.53c.81-.36,1.52-.85,2.11-1.48.59-.63,1.05-1.37,1.4-2.23s.51-1.8.51-2.8-.17-1.88-.51-2.72-.81-1.56-1.4-2.16c-.59-.61-1.29-1.08-2.11-1.43-.81-.35-1.7-.52-2.64-.52s-1.85.17-2.65.52c-.81.35-1.51.83-2.11,1.44-.6.61-1.06,1.33-1.4,2.16-.33.83-.5,1.73-.5,2.71Z"/>
    <path class="cls-1" d="M86.03,265.71c0-.39.19-.58.58-.58h.46c.39,0,.58.19.58.58v10.05c0,1.41.41,2.51,1.23,3.3.82.79,1.95,1.19,3.4,1.19s2.58-.4,3.41-1.21c.83-.81,1.25-1.92,1.25-3.33v-10.01c0-.39.19-.58.58-.58h.47c.37,0,.56.19.56.58v10.08c0,.9-.15,1.72-.45,2.46-.3.74-.73,1.37-1.27,1.89-.54.52-1.2.92-1.96,1.21-.77.29-1.62.43-2.55.43s-1.8-.14-2.57-.43c-.77-.29-1.43-.69-1.98-1.21-.55-.52-.98-1.15-1.28-1.89-.3-.74-.46-1.55-.46-2.46v-10.08Z"/>
    <path class="cls-1" d="M109.18,265.71c0-.39.19-.58.56-.58h.56c.26,0,.5.12.7.37l8.1,11.4c.2.31.43.68.7,1.12s.48.8.65,1.09h.05c-.03-.28-.06-.64-.09-1.07-.03-.43-.05-.82-.05-1.14v-11.19c0-.39.19-.58.58-.58h.47c.37,0,.56.19.56.58v15.2c0,.39-.19.58-.56.58h-.56c-.31,0-.54-.12-.67-.37l-8.12-11.4c-.22-.3-.45-.66-.71-1.09-.26-.43-.47-.81-.64-1.12h-.05c.03.3.06.66.09,1.09.03.43.05.81.05,1.12v11.19c0,.39-.19.58-.56.58h-.49c-.37,0-.56-.19-.56-.58v-15.2Z"/>
    <path class="cls-1" d="M132.8,265.71c0-.39.19-.58.56-.58h4.72c1.26,0,2.39.19,3.41.57,1.02.38,1.88.93,2.59,1.64.71.71,1.26,1.57,1.64,2.57.38,1,.57,2.13.57,3.39s-.19,2.41-.57,3.42-.93,1.86-1.64,2.57c-.71.71-1.58,1.25-2.59,1.63-1.02.38-2.15.57-3.41.57h-4.72c-.37,0-.56-.19-.56-.58v-15.2ZM137.92,280.05c1.04,0,1.97-.15,2.8-.45.83-.3,1.54-.75,2.12-1.33.58-.58,1.02-1.29,1.33-2.13s.45-1.78.45-2.84-.16-1.97-.47-2.8-.75-1.54-1.33-2.12c-.57-.58-1.28-1.03-2.11-1.34-.83-.31-1.77-.46-2.8-.46h-3.51v13.47h3.51Z"/>
    <path class="cls-1" d="M159.72,265.6c.08-.31.29-.47.63-.47h.77c.33,0,.53.15.63.47l5.63,15.22c.12.45-.03.68-.46.68h-.51c-.37,0-.59-.15-.65-.47l-1.74-4.75h-6.56l-1.72,4.75c-.09.31-.31.47-.65.47h-.49c-.47,0-.63-.23-.49-.68l5.63-15.22ZM163.54,274.88l-2.16-5.93c-.11-.28-.22-.63-.33-1.05-.11-.42-.2-.78-.28-1.09h-.05c-.08.31-.18.67-.3,1.09-.12.42-.23.77-.33,1.05l-2.19,5.93h5.63Z"/>
    <path class="cls-1" d="M178.62,266.57h-5.28c-.39,0-.58-.19-.58-.58v-.28c0-.39.19-.58.58-.58h12.19c.39,0,.58.19.58.58v.28c0,.39-.19.58-.58.58h-5.31v14.33c0,.39-.19.58-.56.58h-.47c-.39,0-.58-.19-.58-.58v-14.33Z"/>
    <path class="cls-1" d="M194.81,265.71c0-.39.19-.58.56-.58h.49c.37,0,.56.19.56.58v15.2c0,.39-.19.58-.56.58h-.49c-.37,0-.56-.19-.56-.58v-15.2Z"/>
    <path class="cls-1" d="M206.15,273.21c0-1.18.21-2.28.63-3.29.42-1.02,1-1.9,1.75-2.65s1.63-1.34,2.64-1.77,2.12-.64,3.32-.64,2.28.21,3.29.64,1.9,1.01,2.64,1.76c.75.74,1.33,1.63,1.76,2.65.43,1.02.64,2.13.64,3.3s-.21,2.34-.64,3.39c-.43,1.05-1.01,1.96-1.76,2.72-.74.77-1.63,1.37-2.64,1.8s-2.11.65-3.29.65-2.28-.22-3.29-.65c-1.02-.43-1.9-1.04-2.64-1.8s-1.33-1.68-1.76-2.72c-.43-1.05-.64-2.18-.64-3.39ZM207.82,273.21c0,1.01.17,1.94.51,2.8.34.86.81,1.61,1.4,2.23.59.63,1.29,1.12,2.11,1.48.81.36,1.69.53,2.64.53s1.83-.18,2.64-.53c.81-.36,1.52-.85,2.11-1.48.59-.63,1.05-1.37,1.4-2.23s.51-1.8.51-2.8-.17-1.88-.51-2.72-.81-1.56-1.4-2.16c-.59-.61-1.29-1.08-2.11-1.43-.81-.35-1.7-.52-2.64-.52s-1.85.17-2.65.52c-.81.35-1.51.83-2.11,1.44-.6.61-1.06,1.33-1.4,2.16-.33.83-.5,1.73-.5,2.71Z"/>
    <path class="cls-1" d="M232.56,265.71c0-.39.19-.58.56-.58h.56c.26,0,.5.12.7.37l8.1,11.4c.2.31.43.68.7,1.12s.48.8.65,1.09h.05c-.03-.28-.06-.64-.09-1.07-.03-.43-.05-.82-.05-1.14v-11.19c0-.39.19-.58.58-.58h.47c.37,0,.56.19.56.58v15.2c0,.39-.19.58-.56.58h-.56c-.31,0-.54-.12-.67-.37l-8.12-11.4c-.22-.3-.45-.66-.71-1.09-.26-.43-.47-.81-.64-1.12h-.05c.03.3.06.66.09,1.09.03.43.05.81.05,1.12v11.19c0,.39-.19.58-.56.58h-.49c-.37,0-.56-.19-.56-.58v-15.2Z"/>
  </g>
  <g>
    <g>
      <path class="cls-1" d="M328.76,102.91c-2.92,8-4.4,16.64-4.08,25.48.64,17.33,13.19,17.74,15.71,17.42l2.59,10.03c-19.93,2.72-29.24-10.06-30.07-26.55-.44-8.81,1.26-19.19,5-29.37,0,0,5.84.07,10.85,2.99Z"/>
      <path class="cls-1" d="M372.89,44.8c12.32.31,20.23-13.42,20.48-23.39.27-10.68-8.11-18.64-19.92-18.94-10.95-.27-19.42,8.16-19.71,19.62-.12,4.87,1.44,10.03,4.29,14.16,3.65,5.29,9.06,8.4,14.86,8.55ZM373.19,12.79c5.4.13,10,2.96,9.86,8.36-.13,5.4-4.51,13.46-9.91,13.33-5.4-.13-9.22-6.72-9.09-12.13.13-5.4,3.73-9.7,9.14-9.56Z"/>
      <path class="cls-1" d="M337.73,86.07c10.45-14.37,26.26-24.26,44.1-25.24,15.29-.84,32.51,3.33,43.5,19.63,11.46,17.01,10.16,37.06,8.66,56.48-1.62,20.94-10.27,39.55-10.33,39.72-1.27,3.71.71,7.75,4.42,9.02.71.24,1.42.37,2.13.38,3.01.07,5.86-1.79,6.89-4.79,1.03-3.01,25.75-74.71-2.93-110.63-11.67-14.61-30.14-22.15-54.99-20.56-18.7,1.2-37.05,11.11-50.26,29.14-.76,1.03-1.48,2.08-2.18,3.15,0,0,4.75,1.26,11.01,3.71Z"/>
    </g>
    <g>
      <path class="cls-1" d="M296.7,83.33c8.63.21,14.64-8.35,14.84-16.48.21-8.39-6.36-15.65-14.34-15.85-8.1-.2-15.67,7.28-15.88,15.7-.21,8.34,7.27,16.42,15.38,16.63ZM297.07,58.87c3.76.09,6.54,3.91,6.45,7.68-.09,3.76-2.75,9.02-6.51,8.93-3.76-.09-7.75-4.82-7.65-8.58.09-3.76,3.95-8.12,7.71-8.02Z"/>
      <path class="cls-1" d="M328.61,87.5c-30.24-8.74-49.89,15-49.89,15-16.5,17.75-20.71,42.16-9.51,71.65.84,2.2,2.91,3.57,5.12,3.63.71.02,1.4-.22,2.14-.37,3-.59,4.93-4.03,4.05-7.01-8.48-28.47-9.17-43.33,4.13-59.43,0,0,20.42-22.17,42.8-13.66,17.52,6.51,26.73,17.07,25.23,34.08-1.02,11.49-8.45,13.92-12.31,14.43-21.93,2.03-27.49-16.52-27.49-16.52.83,16.49,10.14,29.26,30.07,26.55h0c14.76-2.72,21.32-12.85,21.44-25.67.14-14.75-5.32-31.88-35.79-42.67Z"/>
    </g>
  </g>
  <g>
    <path class="cls-1" d="M3.28,102.96l12.97-.05.08,20.57c.01,2.42-.24,3.54-.24,3.54h.17c2.23-3.38,7.15-6.34,13.46-6.37,10.89-.04,19.91,8.48,19.97,22.74.06,14.18-8.89,22.86-20.04,22.9-6.4.03-12.12-3.67-14.12-7.98h-.17s.35,1.12.19,2.85l-.24,3.98-11.76.05-.26-62.23ZM16.76,143.53c.03,7.95,5.24,11.91,10.51,11.89,5.96-.02,10.27-4.88,10.24-11.97-.03-7.17-4.37-11.91-10.34-11.89-5.27.02-10.44,4.02-10.41,11.97Z"/>
    <path class="cls-1" d="M56.69,121.76l11.76-.05.28,4.23c0,1.3,0,2.33.1,2.85,2.66-4.68,7.14-8.33,12.76-8.35,1.38,0,2.59.16,2.77.25l.05,12.62c-.17-.09-1.21-.51-2.85-.51-6.57.03-11.9,5.84-11.87,13.71l.08,18.41-12.88.05-.18-43.22Z"/>
    <path class="cls-1" d="M105,121.56l.18,43.22-12.97.05-.18-43.22,12.97-.05Z"/>
    <path class="cls-1" d="M117.3,169.91c4.24,2.32,8.92,3.68,14.8,3.66,8.73-.04,14.24-3.95,14.21-10.86,0-1.73.07-3.63.16-3.54h-.17c-2.4,3.64-7.41,6.69-13.97,6.71-10.8.04-19.83-8.48-19.89-22.74-.06-14.17,8.9-22.85,20.04-22.9,6.31-.03,12.03,3.49,14.03,7.72h.17c.09,0-.26-1.21-.19-2.94l.25-3.63,11.75-.05.16,38.29c0,1.82.01,3.46-.15,5.1-.89,13.49-10.46,20.1-24.64,20.15-7.26.03-13.23-1.41-16.52-3.39l-.05-11.58ZM145.28,143c-.03-7.95-5.24-11.91-10.42-11.89-5.96.02-10.27,4.88-10.24,11.97.03,7.17,4.37,11.91,10.34,11.89,5.18-.02,10.35-4.02,10.32-11.97Z"/>
    <path class="cls-1" d="M180.72,102.23l.09,21.44c0,1.99-.16,3.89-.15,4.75,2.23-3.55,7.23-8.41,14.32-8.44,9.77-.04,15.06,5.9,15.11,17.31l.11,27.05-12.96.05-.1-24.89c-.02-4.24-1.24-7.77-5.91-7.76-6.05.03-10.09,4.71-10.07,11.19l.09,21.52-12.97.05-.26-62.23,12.71-.05Z"/>
    <path class="cls-1" d="M222.55,121.08l-.05-12.97,12.53-.05.05,12.97,11.5-.05.04,10.11-11.5.05.07,17.37c.02,4.58,2.7,6.13,5.56,6.11,2.68-.01,5.44-.89,7.34-1.85l.04,10.63c-1.9.96-5.87,2.01-10.97,2.03-6.83.03-13.5-3.14-14.49-12.21-.09-1.38-.27-2.85-.28-4.41l-.07-17.63-5.96.02-.04-10.11,6.22-.03Z"/>
    <path class="cls-1" d="M3.75,195.11l11.75-.05.27,3.63c.09,1.73-.25,2.94-.16,2.94h.17c1.97-4.24,7.66-7.81,13.97-7.84,11.15-.05,20.17,8.56,20.23,22.73.06,14.26-8.89,22.85-19.7,22.9-6.31.03-11.33-3.07-13.6-6.6h-.17s.26,1.21.27,3.63l.09,20.83-12.88.05-.26-62.23ZM37.8,216.58c-.03-7.09-4.37-11.91-10.33-11.89-5.19.02-10.36,4.02-10.32,11.97.03,7.95,5.23,11.91,10.42,11.88,5.96-.02,10.27-4.8,10.24-11.97Z"/>
    <path class="cls-1" d="M57.77,194.89l11.76-.05.28,4.23c0,1.3,0,2.33.1,2.85,2.66-4.68,7.14-8.33,12.76-8.35,1.38,0,2.59.16,2.77.25l.05,12.62c-.17-.09-1.21-.51-2.85-.51-6.57.03-11.9,5.84-11.87,13.71l.08,18.41-12.88.05-.18-43.22Z"/>
    <path class="cls-1" d="M135.3,216.18c.05,13.14-9.67,22.86-22.98,22.91-13.31.05-23.03-9.59-23.09-22.72-.05-13.14,9.59-22.86,22.9-22.91,13.31-.06,23.12,9.59,23.17,22.72ZM123.11,216.23c-.03-7.17-4.8-11.91-10.94-11.88-6.14.03-10.79,4.8-10.76,11.97.03,7.17,4.72,11.91,10.85,11.88,6.14-.03,10.87-4.8,10.84-11.97Z"/>
    <path class="cls-1" d="M153.96,194.49l.37,4.93c.09,1.56-.25,2.59-.33,3.03h.17c1.8-4.5,6.62-8.15,12.24-8.78,1.38-.27,2.85-.27,4.24-.1,4.93.67,8.92,3.33,10.66,8.25,3.27-5.03,8.44-8.68,14.4-8.7,9.59-.04,14.98,5.82,15.02,17.31l.11,27.05-12.97.05-.1-25.15c-.02-4.24-1.5-7.51-5.65-7.5-7.35.03-9.22,6.78-9.19,13.78l.08,18.93-12.88.05-.1-25.24c-.02-4.06-1.24-7.43-5.56-7.41-7.26.03-9.31,6.69-9.28,13.78l.08,18.93-12.97.05-.18-43.22,11.84-.05Z"/>
    <path class="cls-1" d="M232.44,194.17l.18,43.22-12.97.05-.18-43.22,12.97-.05Z"/>
    <path class="cls-1" d="M255.11,220.09c-8.05-2.22-13.77-5.56-13.8-13.94-.03-8.04,6.34-13.25,16.37-13.29,6.22-.03,11.42,1.51,14.01,2.62l.05,11.06c-2.86-1.46-7.18-2.82-10.99-3.15-1.38-.08-2.77-.07-3.98.19-1.81.35-3.62,1.22-3.62,3.13,0,2.16,2.17,3.28,6.76,4.64,9.87,2.73,14.55,6.16,14.58,13.94.04,8.3-6.77,13.17-17.75,13.21-6.57.03-11.59-1.42-14.71-2.79l-.05-11.32c4.07,2.14,10.3,3.93,14.54,3.92,3.2-.01,6.13-.89,6.12-3.48-.01-2.33-2.61-3.27-7.54-4.72Z"/>
    <path class="cls-1" d="M321.28,212.82c.01,2.33-.24,4.41-.32,5.27l-28.35.12c.54,5.87,5.05,9.23,12.05,9.2,6.14-.03,12.52-1.87,14.94-3.26l.05,10.98c-2.67,1.39-8.46,3.15-16.15,3.18-14.87.06-24.24-9.5-24.3-22.72-.05-13.14,9.5-22.86,21.86-22.91,13.31-.05,20.18,9.43,20.22,20.14ZM301.02,202.88c-5.19.02-8.11,4.01-8.44,8.68l16.34-.07c.15-4.67-2.63-8.63-7.9-8.61Z"/>
    <path class="cls-1" d="M341.19,219.74c-8.05-2.22-13.77-5.56-13.8-13.94-.03-8.04,6.34-13.25,16.37-13.29,6.22-.03,11.42,1.51,14.01,2.62l.05,11.06c-2.86-1.46-7.18-2.82-10.99-3.15-1.38-.08-2.77-.07-3.98.19-1.81.35-3.62,1.22-3.62,3.13,0,2.16,2.17,3.27,6.76,4.64,9.87,2.73,14.55,6.16,14.58,13.94.04,8.3-6.77,13.17-17.75,13.21-6.57.03-11.59-1.42-14.71-2.79l-.05-11.32c4.07,2.14,10.3,3.93,14.54,3.92,3.2-.01,6.13-.89,6.12-3.48-.01-2.33-2.61-3.27-7.54-4.72Z"/>
    <path class="cls-1" d="M98.44,102.22c4.32-.02,7.19,2.65,7.2,6.97.02,4.15-2.82,6.93-7.15,6.94-4.41.02-7.19-2.74-7.2-6.88-.02-4.32,2.74-7.01,7.14-7.03Z"/>
    <path class="cls-1" d="M225.88,174.84c4.32-.02,7.18,2.65,7.2,6.97.02,4.15-2.82,6.93-7.15,6.94-4.41.02-7.18-2.74-7.2-6.89-.02-4.32,2.74-7.01,7.15-7.03Z"/>
  </g>
</svg>
